<?xml version="1.0" encoding="UTF-8"?>
<svg id="_圖層_1" data-name="圖層 1" xmlns="http://www.w3.org/2000/svg" viewBox="0 0 2000 2000">
  <defs>
    <style>
      .cls-1 {
        fill: #fff;
      }

      .cls-2 {
        fill: #333232;
      }
    </style>
  </defs>
  <g>
    <path class="cls-1" d="M1000,1966c-130.42,0-256.93-25.54-376-75.9-115.03-48.65-218.34-118.31-307.07-207.04-88.73-88.73-158.38-192.04-207.04-307.06-50.36-119.07-75.9-245.58-75.9-376s25.54-256.93,75.9-376c48.65-115.03,118.31-218.34,207.04-307.06,88.73-88.73,192.04-158.38,307.07-207.04,119.07-50.36,245.58-75.9,376-75.9s256.93,25.54,376,75.9c115.03,48.65,218.34,118.31,307.07,207.04,88.73,88.73,158.38,192.04,207.04,307.06,50.36,119.07,75.9,245.58,75.9,376s-25.54,256.93-75.9,376c-48.65,115.03-118.31,218.34-207.04,307.06-88.73,88.73-192.04,158.38-307.07,207.04-119.07,50.36-245.58,75.9-376,75.9Z"/>
    <path class="cls-2" d="M1000,68c63.28,0,126.5,6.37,187.9,18.94,59.81,12.24,118.64,30.5,174.85,54.28,55.21,23.35,108.47,52.26,158.29,85.92,49.37,33.35,95.79,71.65,137.98,113.85,42.19,42.19,80.5,88.62,113.85,137.98,33.66,49.82,62.57,103.08,85.92,158.29,23.78,56.22,42.04,115.04,54.28,174.85,12.56,61.4,18.94,124.62,18.94,187.9s-6.37,126.5-18.94,187.9c-12.24,59.81-30.5,118.64-54.28,174.85-23.35,55.21-52.26,108.47-85.92,158.29-33.35,49.37-71.65,95.79-113.85,137.98-42.19,42.19-88.61,80.5-137.98,113.85-49.82,33.66-103.08,62.57-158.29,85.92-56.22,23.78-115.04,42.04-174.85,54.28-61.4,12.56-124.62,18.94-187.9,18.94s-126.5-6.37-187.9-18.94c-59.81-12.24-118.64-30.5-174.85-54.28-55.21-23.35-108.47-52.26-158.29-85.92-49.37-33.35-95.79-71.65-137.98-113.85-42.19-42.19-80.5-88.62-113.85-137.98-33.66-49.82-62.57-103.08-85.92-158.29-23.78-56.22-42.04-115.04-54.28-174.85-12.57-61.4-18.94-124.62-18.94-187.9s6.37-126.5,18.94-187.9c12.24-59.81,30.5-118.64,54.28-174.85,23.35-55.21,52.26-108.47,85.92-158.29,33.35-49.37,71.65-95.79,113.85-137.98,42.19-42.19,88.61-80.5,137.98-113.85,49.82-33.66,103.08-62.57,158.29-85.92,56.22-23.78,115.04-42.04,174.85-54.28,61.4-12.57,124.62-18.94,187.9-18.94M1000,0C447.72,0,0,447.72,0,1000s447.72,1000,1000,1000,1000-447.72,1000-1000S1552.28,0,1000,0h0Z"/>
  </g>
  <g>
    <path class="cls-2" d="M1269.5,1312.12l166.49,73.06-37.67-5.92,23.78,20.85-10.88,6.1-25.78-6.1,6.96,12.03h-12.89v7.98s-68.3-17.02-125.88-54.02l-21.75-9.97h27.72l-34.72-17h33.73l-1.94-12.95,12.84-14.08Z"/>
    <path class="cls-2" d="M1671.85,803.98l154.58-82.05s-174.56,65.39-235.59,69.76c-3.03.29-5.77.37-8.22.29-51.55-2.03,143.42-26.82,206.84-122.84,63.44-96.09-15.1-5.5-15.1-5.5l-217.49,112.38,112.98-74.1,55.48-94.05-186.28,158.03-47.59,22.06,51.51-46.05,65.45-83.98,23.77-78.07-111.03,154.11s-63.37,65.96-93.17,71.93c0,0,87.25-96,91.25-168l-61.45,104.02s-67.42,86.05-83.29,96.02c-15.85,10.01-152.59,60.08-152.59,60.08l-241.8,140.03-97.09,43.99-95.17-1.99-164.48-66.03-81.25-34.44-10.8-7.85-48.63-19.69-26.07-16.42-28.07-16.42-11.29-13.15-87.18-50.07-28.69-17.27-20.9-16.76-106.95-100,29.68,88.04-29.68-13.97,14.83,61.98-14.83-13.99,45.56,67.93,81.19,60.08,126.87,29.97,178.39,70.09,85.18,9.97s-51.54,10.01-79.25,14.02c-27.76,4-43.61,16-43.61,16l-9.89,36.03h61.41l97.16,49.96,158.53,110.04,281.38,54.05h11.93l23.81,17.13h33.64l-47.53-35.17,37.64-12-19.81-22,29.71-19.98v-42.06l15.87-17.99,77.32-39.99h73.32l55.51-70.01,23.74-2.03,85.24-43.99v-23.45l39.64-36.6-59.48-8,59.48-6.03,29.71-39.3,61.45-22.68v-8l45.64-21.99-15.92-6.02,57.52-26.02-57.52-4.04,77.34-37.98-83.29-3.98,114.99-50.02-154.58,24.03ZM666.86,1117.15c-11.67,0-25.38-11.71-25.38-11.71l43.22-6.26s-6.14,17.97-17.84,17.97Z"/>
  </g>
</svg>